<svg width="26" height="26" viewBox="0 0 26 26" fill="none" xmlns="http://www.w3.org/2000/svg">
<path d="M12.9998 2.16669C10.0597 2.16669 9.69025 2.18077 8.53542 2.23169C7.38059 2.28585 6.593 2.46677 5.904 2.73544C5.18107 3.00749 4.52629 3.43415 3.98542 3.9856C3.43432 4.52676 3.00771 5.18146 2.73525 5.90419C2.46659 6.5921 2.28459 7.37969 2.2315 8.53127C2.18059 9.68935 2.1665 10.0577 2.1665 13.0011C2.1665 15.9424 2.18059 16.3107 2.2315 17.4655C2.28567 18.6204 2.46659 19.4068 2.73525 20.0958C3.00774 20.8186 3.43435 21.4733 3.98542 22.0144C4.52562 22.5662 5.18012 22.9929 5.90292 23.2646C6.593 23.5322 7.37842 23.7153 8.53217 23.7684C9.68917 23.8193 10.0575 23.8333 12.9998 23.8333C15.9422 23.8333 16.3094 23.8204 17.4653 23.7684C18.618 23.7142 19.4078 23.5322 20.0978 23.2646C20.8204 22.9925 21.4748 22.5658 22.0153 22.0144C22.566 21.4731 22.9922 20.8185 23.2644 20.0958C23.5309 19.4068 23.714 18.6193 23.7682 17.4655C23.8191 16.3107 23.8332 15.9424 23.8332 13C23.8332 10.0577 23.8202 9.68935 23.7682 8.53235C23.714 7.37969 23.5309 6.5921 23.2644 5.90419C22.992 5.18143 22.5654 4.52671 22.0142 3.9856C21.4736 3.43393 20.8187 3.00724 20.0957 2.73544C19.4056 2.46677 18.6169 2.28477 17.4643 2.23169C16.3083 2.18077 15.9411 2.16669 12.9977 2.16669H12.9998ZM12.0292 4.11994H12.9998C15.8923 4.11994 16.2358 4.1286 17.3765 4.18169C18.4328 4.22935 19.0069 4.40702 19.3893 4.55435C19.8942 4.75044 20.256 4.9866 20.6352 5.36469C21.0143 5.74385 21.2483 6.1046 21.4444 6.61052C21.5939 6.99185 21.7694 7.56602 21.8171 8.62227C21.8702 9.76302 21.881 10.1064 21.881 12.9979C21.881 15.8882 21.8702 16.2327 21.8171 17.3745C21.7694 18.4297 21.5928 19.0028 21.4444 19.3852C21.2709 19.8555 20.994 20.2809 20.6341 20.6299C20.2847 20.9896 19.8589 21.2662 19.3883 21.4392C19.0091 21.5876 18.4349 21.7642 17.3765 21.8129C16.2358 21.8639 15.8923 21.8769 12.9998 21.8769C10.1073 21.8769 9.76392 21.8649 8.62209 21.8129C7.56584 21.7642 6.99275 21.5876 6.61142 21.4392C6.14089 21.2659 5.71518 20.9894 5.36559 20.6299C5.00504 20.2806 4.7274 19.8549 4.55309 19.3841C4.40575 19.0028 4.22809 18.4286 4.18042 17.3724C4.1295 16.2305 4.11867 15.8882 4.11867 12.9946C4.11867 10.1021 4.1295 9.76085 4.18042 8.61902C4.22917 7.56277 4.40575 6.9886 4.55417 6.60727C4.75025 6.10244 4.98642 5.7406 5.36559 5.36144C5.7149 5.00139 6.14067 4.72445 6.61142 4.5511C6.99275 4.40269 7.56584 4.2261 8.62209 4.17735C9.622 4.13185 10.0088 4.11777 12.0281 4.11669V4.11994H12.0292ZM18.7838 5.91827C18.439 5.91827 18.1083 6.05523 17.8645 6.29903C17.6207 6.54283 17.4838 6.87349 17.4838 7.21827C17.4838 7.56305 17.6207 7.89371 17.8645 8.13751C18.1083 8.38131 18.439 8.51827 18.7838 8.51827C19.1285 8.51827 19.4592 8.38131 19.703 8.13751C19.9468 7.89371 20.0838 7.56305 20.0838 7.21827C20.0838 6.87349 19.9468 6.54283 19.703 6.29903C19.4592 6.05523 19.1285 5.91827 18.7838 5.91827ZM12.9998 7.4371C11.5242 7.41412 10.0998 7.97828 9.04011 9.00548C7.9804 10.0327 7.37215 11.4388 7.34917 12.9144C7.32618 14.3901 7.89035 15.8145 8.91755 16.8742C9.94474 17.9339 11.3508 18.5421 12.8265 18.5651C14.3022 18.5881 15.7265 18.0239 16.7862 16.9967C17.8459 15.9695 18.4542 14.5634 18.4772 13.0878C18.5002 11.6121 17.936 10.1877 16.9088 9.12804C15.8816 8.06834 14.4755 7.46009 12.9998 7.4371ZM12.9998 9.38819C13.4741 9.38819 13.9438 9.48161 14.382 9.66312C14.8202 9.84463 15.2184 10.1107 15.5538 10.4461C15.8892 10.7815 16.1552 11.1796 16.3367 11.6178C16.5182 12.056 16.6117 12.5257 16.6117 13C16.6117 13.4743 16.5182 13.944 16.3367 14.3822C16.1552 14.8204 15.8892 15.2186 15.5538 15.554C15.2184 15.8894 14.8202 16.1554 14.382 16.3369C13.9438 16.5184 13.4741 16.6119 12.9998 16.6119C12.0419 16.6119 11.1232 16.2313 10.4459 15.554C9.76853 14.8766 9.388 13.9579 9.388 13C9.388 12.0421 9.76853 11.1234 10.4459 10.4461C11.1232 9.76872 12.0419 9.38819 12.9998 9.38819Z" fill="#D2D2D2"/>
</svg>
