<svg width="35" height="35" viewBox="0 0 35 35" fill="none" xmlns="http://www.w3.org/2000/svg">
<path d="M14.5249 5.25H19.7749C19.8898 5.25 20.0036 5.27263 20.1097 5.31661C20.2159 5.36058 20.3124 5.42503 20.3936 5.50628C20.4749 5.58753 20.5393 5.68399 20.5833 5.79015C20.6273 5.89631 20.6499 6.01009 20.6499 6.125V7.875H13.6499V6.125C13.6499 6.01009 13.6725 5.89631 13.7165 5.79015C13.7605 5.68399 13.8249 5.58753 13.9062 5.50628C13.9874 5.42503 14.0839 5.36058 14.1901 5.31661C14.2962 5.27263 14.41 5.25 14.5249 5.25ZM22.3999 7.875V6.125C22.3999 5.78028 22.332 5.43894 22.2001 5.12046C22.0682 4.80198 21.8748 4.5126 21.6311 4.26884C21.3873 4.02509 21.0979 3.83173 20.7794 3.69982C20.461 3.5679 20.1196 3.5 19.7749 3.5H14.5249C14.1802 3.5 13.8388 3.5679 13.5204 3.69982C13.2019 3.83173 12.9125 4.02509 12.6687 4.26884C12.425 4.5126 12.2316 4.80198 12.0997 5.12046C11.9678 5.43894 11.8999 5.78028 11.8999 6.125V7.875H7.53657C7.53074 7.87494 7.5249 7.87494 7.51907 7.875H5.7749C5.54284 7.875 5.32028 7.96719 5.15618 8.13128C4.99209 8.29538 4.8999 8.51794 4.8999 8.75C4.8999 8.98206 4.99209 9.20462 5.15618 9.36872C5.32028 9.53281 5.54284 9.625 5.7749 9.625H6.71699L8.21032 28.28C8.2807 29.1569 8.67871 29.9751 9.32512 30.5718C9.97153 31.1685 10.8189 31.4999 11.6987 31.5H22.6012C23.4811 31.5003 24.3289 31.169 24.9756 30.5723C25.6223 29.9756 26.0205 29.1571 26.0909 28.28L27.5843 9.625H28.5249C28.757 9.625 28.9795 9.53281 29.1436 9.36872C29.3077 9.20462 29.3999 8.98206 29.3999 8.75C29.3999 8.51794 29.3077 8.29538 29.1436 8.13128C28.9795 7.96719 28.757 7.875 28.5249 7.875H26.7837C26.7778 7.87494 26.772 7.87494 26.7662 7.875H22.3999ZM25.827 9.625L24.3468 28.14C24.3116 28.5787 24.1124 28.988 23.7888 29.2864C23.4653 29.5848 23.0413 29.7503 22.6012 29.75H11.6987C11.2588 29.7499 10.8351 29.5843 10.5119 29.2859C10.1887 28.9876 9.98967 28.5784 9.95449 28.14L8.47428 9.625H25.827ZM12.7253 11.375C12.9568 11.3619 13.1839 11.4411 13.357 11.5953C13.5301 11.7495 13.6349 11.9661 13.6484 12.1975L14.5234 27.0725C14.5286 27.2988 14.4458 27.5184 14.2925 27.685C14.1391 27.8516 13.9272 27.9522 13.7012 27.9658C13.4752 27.9794 13.2527 27.9049 13.0805 27.7579C12.9083 27.6109 12.7998 27.4028 12.7778 27.1775L11.8999 12.3025C11.8928 12.1875 11.9085 12.0723 11.946 11.9634C11.9835 11.8545 12.0422 11.7541 12.1186 11.668C12.195 11.5818 12.2877 11.5116 12.3913 11.4613C12.4949 11.411 12.6074 11.3817 12.7224 11.375H12.7253ZM21.5774 11.375C21.6923 11.3819 21.8046 11.4113 21.9081 11.4617C22.0115 11.512 22.104 11.5823 22.1803 11.6685C22.2566 11.7546 22.3151 11.855 22.3525 11.9638C22.3899 12.0726 22.4056 12.1877 22.3984 12.3025L21.5234 27.1775C21.5208 27.2951 21.4944 27.411 21.4459 27.5182C21.3974 27.6254 21.3278 27.7217 21.2412 27.8014C21.1547 27.8811 21.0529 27.9425 20.9421 27.9819C20.8312 28.0214 20.7136 28.0381 20.5961 28.031C20.4787 28.024 20.3639 27.9933 20.2586 27.9408C20.1532 27.8884 20.0596 27.8152 19.9832 27.7257C19.9068 27.6363 19.8492 27.5323 19.814 27.42C19.7787 27.3078 19.7664 27.1896 19.7778 27.0725L20.6528 12.1975C20.6664 11.9661 20.7712 11.7495 20.9442 11.5953C21.1173 11.4411 21.346 11.3619 21.5774 11.375ZM17.1499 11.375C17.382 11.375 17.6045 11.4672 17.7686 11.6313C17.9327 11.7954 18.0249 12.0179 18.0249 12.25V27.125C18.0249 27.2399 18.0023 27.3537 17.9583 27.4598C17.9143 27.566 17.8499 27.6625 17.7686 27.7437C17.6874 27.825 17.5909 27.8894 17.4847 27.9334C17.3786 27.9774 17.2648 28 17.1499 28C17.035 28 16.9212 27.9774 16.8151 27.9334C16.7089 27.8894 16.6124 27.825 16.5312 27.7437C16.4499 27.6625 16.3855 27.566 16.3415 27.4598C16.2975 27.3537 16.2749 27.2399 16.2749 27.125V12.25C16.2749 12.0179 16.3671 11.7954 16.5312 11.6313C16.6953 11.4672 16.9178 11.375 17.1499 11.375Z" fill="black"/>
</svg>
