<svg width="28" height="28" viewBox="0 0 28 28" fill="none" xmlns="http://www.w3.org/2000/svg">
<path d="M23.3332 24.5V22.1667C23.3332 20.929 22.8415 19.742 21.9663 18.8668C21.0912 17.9917 19.9042 17.5 18.6665 17.5H9.33317C8.09549 17.5 6.90851 17.9917 6.03334 18.8668C5.15817 19.742 4.6665 20.929 4.6665 22.1667V24.5" stroke="black" stroke-width="2" stroke-linecap="round" stroke-linejoin="round"/>
<path d="M14.0002 3.5C12.7625 3.5 11.5755 3.99167 10.7003 4.86683C9.82516 5.742 9.3335 6.92899 9.3335 8.16667C9.3335 9.40434 9.82516 10.5913 10.7003 11.4665C11.5755 12.3417 12.7625 12.8333 14.0002 12.8333C15.2378 12.8333 16.4248 12.3417 17.3 11.4665C18.1752 10.5913 18.6668 9.40434 18.6668 8.16667C18.6668 6.92899 18.1752 5.742 17.3 4.86683C16.4248 3.99167 15.2378 3.5 14.0002 3.5Z" stroke="black" stroke-width="2" stroke-linecap="round" stroke-linejoin="round"/>
</svg>
